<?xml version="1.0" encoding="utf-8"?>
<!-- Generator: Adobe Illustrator 18.1.1, SVG Export Plug-In . SVG Version: 6.00 Build 0)  -->
<svg version="1.1" id="Layer_1" xmlns="http://www.w3.org/2000/svg" xmlns:xlink="http://www.w3.org/1999/xlink" x="0px" y="0px"
	 viewBox="0 0 360 144" enable-background="new 0 0 360 144" xml:space="preserve">
<g>
	<rect x="6.2" y="132.5" fill="#8F9194" width="347.5" height="5.4"/>
	<rect x="6.2" y="125.8" fill="#8F9194" width="347.5" height="3.4"/>
	<g>
		<rect x="6.2" y="13.2" fill="#8F9194" width="76.9" height="109.2"/>
		<rect x="13.2" y="20" fill="#00AAB8" width="63.1" height="95.5"/>
		<path fill="#FFFFFF" d="M62.3,36.6l1.4-4h-38l1.4,4H62.3z M28.3,95.8h32.9L60,92.7H29.4L28.3,95.8z M28.3,39.7l1.2,3.1H60l1.2-3.1
			H28.3z M27.1,98.8l-1.4,4h38l-1.4-4H27.1z M54.4,87V47.8c0-0.5-0.4-1-1-1c-0.5,0-1,0.4-1,1V87c0,0.5,0.4,1,1,1
			C54,88,54.4,87.5,54.4,87z M46.5,86.4V48.3c0-0.8-0.7-1.5-1.5-1.5c-0.8,0-1.5,0.7-1.5,1.5v38.1c0,0.8,0.7,1.5,1.5,1.5
			C45.9,87.9,46.5,87.3,46.5,86.4z M37.6,85.6V49.1c0-1.3-1-2.3-2.3-2.3c-1.3,0-2.3,1-2.3,2.3v36.5c0,1.3,1,2.3,2.3,2.3
			C36.6,87.9,37.6,86.9,37.6,85.6z"/>
	</g>
	<g>
		<g>
			<path d="M99.3,111.5c0-0.7-0.1-1-0.3-1.4c-0.1-0.2-1.9-3.2-2.4-3.9c-0.3-0.5-0.7-0.8-0.9-1c-0.2-0.1-0.5-0.2-0.6-0.2
				c-0.1,0-0.1,0-0.1-0.1c0-0.1,0.1-0.1,0.2-0.1c0.3,0,1.3,0,1.3,0c0.1,0,0.6,0,1.1,0c0.1,0,0.2,0,0.2,0.1c0,0.1-0.1,0.1-0.2,0.1
				c-0.1,0.1-0.2,0.1-0.2,0.2c0,0.2,0.1,0.3,0.2,0.5c0.2,0.4,2.2,3.9,2.5,4.3c0.3-0.6,2-3.5,2.2-4c0.2-0.3,0.2-0.5,0.2-0.7
				c0-0.2-0.1-0.3-0.2-0.4c-0.1,0-0.2-0.1-0.2-0.1c0-0.1,0.1-0.1,0.2-0.1c0.4,0,0.8,0,0.9,0c0.1,0,1.1,0,1.3,0c0.1,0,0.2,0,0.2,0.1
				c0,0.1-0.1,0.1-0.2,0.1c-0.1,0-0.4,0.1-0.6,0.2c-0.3,0.2-0.4,0.3-0.7,0.7c-0.4,0.5-2.3,3.7-2.6,4.3c-0.2,0.5-0.2,0.9-0.2,1.3v1.2
				c0,0.2,0,0.8,0,1.3c0,0.4,0.1,0.7,0.6,0.7c0.2,0,0.5,0.1,0.6,0.1c0.1,0,0.1,0,0.1,0.1c0,0.1-0.1,0.1-0.2,0.1c-0.7,0-1.6,0-1.7,0
				c-0.1,0-0.9,0-1.3,0c-0.1,0-0.2,0-0.2-0.1c0,0,0-0.1,0.1-0.1c0.1,0,0.3,0,0.4-0.1c0.3-0.1,0.4-0.3,0.4-0.7c0-0.6,0-1.1,0-1.3
				V111.5z"/>
			<path d="M113.1,104.6c3,0,5.3,1.9,5.3,5c0,3-2.1,5.5-5.4,5.5c-3.7,0-5.2-2.9-5.2-5.3C107.8,107.7,109.4,104.6,113.1,104.6z
				 M113.4,114.7c1.2,0,3.7-0.7,3.7-4.6c0-3.2-2-5-4.1-5c-2.2,0-3.9,1.5-3.9,4.4C109.1,112.7,111,114.7,113.4,114.7z"/>
			<path d="M123.8,108.7c0-2.1,0-2.5,0-2.9c0-0.5-0.1-0.7-0.6-0.8c-0.1,0-0.3,0-0.5,0c-0.1,0-0.1,0-0.1-0.1c0-0.1,0.1-0.1,0.2-0.1
				c0.6,0,1.4,0,1.5,0c0.1,0,0.9,0,1.3,0c0.1,0,0.2,0,0.2,0.1c0,0.1-0.1,0.1-0.1,0.1c-0.1,0-0.2,0-0.3,0c-0.4,0.1-0.5,0.3-0.5,0.8
				c0,0.4,0,0.8,0,2.9v1.9c0,1.9,0.4,2.8,1,3.3c0.7,0.6,1.3,0.7,2,0.7c0.8,0,1.6-0.4,2.1-1c0.6-0.8,0.8-1.9,0.8-3.3v-1.7
				c0-2.1,0-2.5,0-2.9c0-0.5-0.1-0.7-0.6-0.8c-0.1,0-0.3,0-0.5,0c-0.1,0-0.1,0-0.1-0.1c0-0.1,0.1-0.1,0.2-0.1c0.6,0,1.3,0,1.4,0
				c0.1,0,0.7,0,1.1,0c0.1,0,0.2,0,0.2,0.1c0,0.1-0.1,0.1-0.1,0.1c-0.1,0-0.2,0-0.3,0c-0.4,0.1-0.5,0.3-0.5,0.8c0,0.4,0,0.8,0,2.9
				v1.4c0,1.5-0.2,3.1-1.2,4c-1,0.9-2,1-2.8,1c-0.5,0-1.8-0.1-2.8-1c-0.7-0.6-1.2-1.6-1.2-3.5V108.7z"/>
			<path d="M138.7,108.7c0-2.1,0-2.5,0-2.9c0-0.5-0.1-0.7-0.6-0.8c-0.1,0-0.3,0-0.5,0c-0.1,0-0.1,0-0.1-0.1c0-0.1,0.1-0.1,0.2-0.1
				c0.6,0,1.5,0,1.5,0c0.1,0,1.2,0,1.6,0c0.8,0,1.8,0.1,2.5,0.6c0.3,0.2,0.9,0.9,0.9,1.8c0,1-0.4,2-1.6,3.1c1.1,1.4,2,2.6,2.8,3.4
				c0.7,0.8,1.3,0.9,1.6,1c0.3,0,0.4,0,0.5,0c0.1,0,0.1,0,0.1,0.1c0,0.1-0.1,0.1-0.3,0.1h-1c-0.8,0-1.1-0.1-1.4-0.3
				c-0.6-0.3-1.1-1-1.8-2c-0.6-0.7-1.2-1.6-1.5-2c-0.1-0.1-0.1-0.1-0.2-0.1l-1.7,0c-0.1,0-0.1,0-0.1,0.1v0.3c0,1.3,0,2.4,0.1,2.9
				c0,0.4,0.1,0.7,0.5,0.7c0.2,0,0.5,0.1,0.6,0.1c0.1,0,0.1,0,0.1,0.1c0,0.1-0.1,0.1-0.2,0.1c-0.7,0-1.6,0-1.7,0c0,0-0.9,0-1.3,0
				c-0.1,0-0.2,0-0.2-0.1c0,0,0-0.1,0.1-0.1c0.1,0,0.3,0,0.4-0.1c0.3-0.1,0.3-0.3,0.4-0.7c0.1-0.6,0.1-1.6,0.1-2.9V108.7z
				 M139.8,109.9c0,0.1,0,0.1,0.1,0.2c0.2,0.1,0.8,0.2,1.4,0.2c0.3,0,0.7,0,1-0.3c0.5-0.3,0.8-1,0.8-2.1c0-1.7-0.9-2.7-2.3-2.7
				c-0.4,0-0.8,0-0.9,0.1c-0.1,0-0.1,0.1-0.1,0.2V109.9z"/>
			<path d="M162.1,111.1c0,1.3,0,2.4,0.1,2.9c0,0.4,0.1,0.7,0.5,0.7c0.2,0,0.5,0.1,0.6,0.1c0.1,0,0.1,0,0.1,0.1
				c0,0.1-0.1,0.1-0.2,0.1c-0.7,0-1.6,0-1.7,0c-0.1,0-0.9,0-1.3,0c-0.1,0-0.2,0-0.2-0.1c0,0,0-0.1,0.1-0.1c0.1,0,0.3,0,0.4-0.1
				c0.3-0.1,0.3-0.3,0.4-0.7c0.1-0.6,0.1-1.6,0.1-2.9v-5.7l-2,0c-0.8,0-1.2,0.1-1.4,0.4c-0.1,0.2-0.2,0.3-0.2,0.4
				c0,0.1-0.1,0.1-0.1,0.1c0,0-0.1,0-0.1-0.1c0-0.1,0.3-1.3,0.3-1.4c0-0.1,0.1-0.3,0.1-0.3c0.1,0,0.2,0.1,0.6,0.2
				c0.4,0,0.9,0.1,1.1,0.1h5c0.9,0,1.2-0.1,1.3-0.1c0.1,0,0.1,0.1,0.1,0.2c0,0.4,0,1.3,0,1.5c0,0.1,0,0.2-0.1,0.2
				c-0.1,0-0.1,0-0.1-0.2l0-0.1c-0.1-0.4-0.4-0.7-1.7-0.7l-1.7,0V111.1z"/>
			<path d="M174.8,104.6c3,0,5.3,1.9,5.3,5c0,3-2.1,5.5-5.4,5.5c-3.7,0-5.2-2.9-5.2-5.3C169.5,107.7,171.1,104.6,174.8,104.6z
				 M175.1,114.7c1.2,0,3.7-0.7,3.7-4.6c0-3.2-2-5-4.1-5c-2.2,0-3.9,1.5-3.9,4.4C170.8,112.7,172.7,114.7,175.1,114.7z"/>
			<path d="M194.6,113.1L194.6,113.1c0.4-1.2,1.7-5.1,2.1-6.9c0.1-0.5,0.1-0.7,0.1-0.9c0-0.2-0.1-0.4-0.8-0.4c-0.1,0-0.1,0-0.1-0.1
				c0-0.1,0.1-0.1,0.2-0.1c0.7,0,1.3,0,1.4,0c0.1,0,0.7,0,1.1,0c0.1,0,0.2,0,0.2,0.1c0,0.1,0,0.1-0.1,0.1c-0.1,0-0.3,0-0.5,0.1
				c-0.4,0.2-0.6,0.7-0.9,1.5c-0.6,1.7-2,6-2.5,7.5c-0.3,1-0.4,1.2-0.6,1.2c-0.1,0-0.2-0.2-0.4-0.7l-2.6-7.5h0
				c-0.5,1.3-2.3,6.2-2.8,7.5c-0.2,0.6-0.3,0.7-0.4,0.7c-0.1,0-0.2-0.1-0.5-1.1l-2.4-8c-0.2-0.7-0.4-0.9-0.7-1
				c-0.2-0.1-0.5-0.1-0.6-0.1c-0.1,0-0.1,0-0.1-0.1c0-0.1,0.1-0.1,0.2-0.1c0.7,0,1.4,0,1.6,0c0.1,0,0.7,0,1.4,0c0.2,0,0.2,0,0.2,0.1
				c0,0.1-0.1,0.1-0.1,0.1c-0.1,0-0.4,0-0.5,0.1c-0.1,0-0.2,0.1-0.2,0.3c0,0.2,0.1,0.6,0.3,1.2c0.2,0.9,1.6,5.8,1.8,6.5h0l2.9-7.7
				c0.2-0.6,0.3-0.6,0.3-0.6c0.1,0,0.2,0.2,0.3,0.6L194.6,113.1z"/>
			<path d="M204.4,113.2c0,1.1,0.2,1.5,0.5,1.6c0.3,0.1,0.6,0.1,0.7,0.1c0.1,0,0.1,0,0.1,0.1c0,0.1-0.1,0.1-0.2,0.1
				c-0.8,0-1.3,0-1.4,0c-0.1,0-0.7,0-1.3,0c-0.1,0-0.2,0-0.2-0.1c0-0.1,0-0.1,0.1-0.1c0.1,0,0.4,0,0.6-0.1c0.3-0.1,0.4-0.5,0.4-1.7
				l0-7.7c0-0.5,0-0.7,0.1-0.7c0.1,0,0.3,0.3,0.5,0.4c0.2,0.2,2.2,2.4,4.3,4.6c1.3,1.4,2.8,3.1,3.2,3.5l-0.1-6.8
				c0-0.9-0.1-1.2-0.5-1.3c-0.2-0.1-0.6-0.1-0.7-0.1c-0.1,0-0.1,0-0.1-0.1c0-0.1,0.1-0.1,0.3-0.1c0.6,0,1.3,0,1.4,0
				c0.1,0,0.6,0,1.1,0c0.1,0,0.2,0,0.2,0.1c0,0.1-0.1,0.1-0.1,0.1c-0.1,0-0.2,0-0.3,0c-0.4,0.1-0.5,0.4-0.5,1.2l0,7.9
				c0,0.9,0,1-0.1,1c-0.1,0-0.3-0.1-1-0.9c-0.1-0.1-2.1-2.1-3.5-3.6c-1.6-1.7-3.1-3.4-3.5-3.9L204.4,113.2z"/>
			<path d="M219.7,108.7c0-2.1,0-2.5,0-2.9c0-0.5-0.1-0.7-0.6-0.8c-0.1,0-0.3,0-0.5,0c-0.1,0-0.1,0-0.1-0.1c0-0.1,0.1-0.1,0.2-0.1
				c0.3,0,0.7,0,1,0c0.3,0,0.5,0,0.6,0c0.1,0,2.8,0,3.1,0c0.3,0,0.5,0,0.6-0.1c0.1,0,0.1-0.1,0.2-0.1c0,0,0.1,0.1,0.1,0.1
				c0,0.1-0.1,0.3-0.1,0.6c0,0.1,0,0.7-0.1,0.9c0,0.1,0,0.1-0.1,0.1c-0.1,0-0.1-0.1-0.1-0.2c0-0.1,0-0.3-0.1-0.5
				c-0.1-0.2-0.2-0.4-1-0.5c-0.2,0-1.7,0-1.8,0c-0.1,0-0.1,0-0.1,0.1v3.7c0,0.1,0,0.1,0.1,0.1c0.2,0,1.8,0,2.1,0
				c0.3,0,0.5-0.1,0.6-0.2c0.1-0.1,0.1-0.2,0.2-0.2c0,0,0.1,0,0.1,0.1c0,0.1-0.1,0.3-0.1,0.8c0,0.3-0.1,0.8-0.1,0.9
				c0,0.1,0,0.3-0.1,0.3c-0.1,0-0.1-0.1-0.1-0.1c0-0.1,0-0.3-0.1-0.4c-0.1-0.2-0.2-0.4-0.7-0.5c-0.4,0-1.7-0.1-1.9-0.1
				c-0.1,0-0.1,0-0.1,0.1v1.2c0,0.5,0,2,0,2.3c0,0.9,0.2,1.1,1.6,1.1c0.4,0,0.9,0,1.3-0.1c0.4-0.1,0.5-0.4,0.6-1
				c0-0.1,0.1-0.2,0.1-0.2c0.1,0,0.1,0.1,0.1,0.2c0,0.1-0.1,1-0.2,1.3c-0.1,0.4-0.2,0.4-0.7,0.4c-1,0-1.8,0-2.3,0
				c-0.5,0-0.8,0-1.1,0c0,0-0.3,0-0.5,0c-0.3,0-0.6,0-0.8,0c-0.1,0-0.2,0-0.2-0.1c0,0,0-0.1,0.1-0.1c0.1,0,0.3,0,0.4-0.1
				c0.3-0.1,0.3-0.3,0.4-0.7c0.1-0.6,0.1-1.6,0.1-2.9V108.7z"/>
			<path d="M246,111.5c0-0.7-0.1-1-0.3-1.4c-0.1-0.2-1.9-3.2-2.4-3.9c-0.3-0.5-0.7-0.8-0.9-1c-0.2-0.1-0.5-0.2-0.6-0.2
				c-0.1,0-0.1,0-0.1-0.1c0-0.1,0.1-0.1,0.2-0.1c0.3,0,1.3,0,1.3,0c0.1,0,0.6,0,1.1,0c0.1,0,0.2,0,0.2,0.1c0,0.1-0.1,0.1-0.2,0.1
				c-0.1,0.1-0.2,0.1-0.2,0.2c0,0.2,0.1,0.3,0.2,0.5c0.2,0.4,2.2,3.9,2.5,4.3c0.3-0.6,2-3.5,2.2-4c0.2-0.3,0.2-0.5,0.2-0.7
				c0-0.2-0.1-0.3-0.2-0.4c-0.1,0-0.2-0.1-0.2-0.1c0-0.1,0.1-0.1,0.2-0.1c0.4,0,0.8,0,0.9,0c0.1,0,1,0,1.3,0c0.1,0,0.2,0,0.2,0.1
				c0,0.1-0.1,0.1-0.2,0.1c-0.1,0-0.4,0.1-0.6,0.2c-0.3,0.2-0.4,0.3-0.7,0.7c-0.4,0.5-2.3,3.7-2.6,4.3c-0.2,0.5-0.2,0.9-0.2,1.3v1.2
				c0,0.2,0,0.8,0,1.3c0,0.4,0.2,0.7,0.6,0.7c0.2,0,0.5,0.1,0.6,0.1c0.1,0,0.1,0,0.1,0.1c0,0.1-0.1,0.1-0.2,0.1c-0.7,0-1.6,0-1.7,0
				c-0.1,0-0.9,0-1.3,0c-0.1,0-0.2,0-0.2-0.1c0,0,0-0.1,0.1-0.1c0.1,0,0.3,0,0.4-0.1c0.3-0.1,0.4-0.3,0.4-0.7c0-0.6,0-1.1,0-1.3
				V111.5z"/>
			<path d="M259.8,104.6c3,0,5.3,1.9,5.3,5c0,3-2.1,5.5-5.4,5.5c-3.7,0-5.2-2.9-5.2-5.3C254.5,107.7,256.1,104.6,259.8,104.6z
				 M260.1,114.7c1.2,0,3.7-0.7,3.7-4.6c0-3.2-2-5-4.1-5c-2.2,0-3.9,1.5-3.9,4.4C255.7,112.7,257.6,114.7,260.1,114.7z"/>
			<path d="M270.5,108.7c0-2.1,0-2.5,0-2.9c0-0.5-0.1-0.7-0.6-0.8c-0.1,0-0.3,0-0.5,0c-0.1,0-0.1,0-0.1-0.1c0-0.1,0.1-0.1,0.2-0.1
				c0.6,0,1.4,0,1.5,0c0.1,0,0.9,0,1.3,0c0.1,0,0.2,0,0.2,0.1c0,0.1-0.1,0.1-0.1,0.1c-0.1,0-0.2,0-0.3,0c-0.4,0.1-0.5,0.3-0.5,0.8
				c0,0.4,0,0.8,0,2.9v1.9c0,1.9,0.4,2.8,1,3.3c0.7,0.6,1.3,0.7,2,0.7c0.8,0,1.6-0.4,2.1-1c0.6-0.8,0.8-1.9,0.8-3.3v-1.7
				c0-2.1,0-2.5,0-2.9c0-0.5-0.1-0.7-0.6-0.8c-0.1,0-0.3,0-0.5,0c-0.1,0-0.1,0-0.1-0.1c0-0.1,0.1-0.1,0.2-0.1c0.6,0,1.3,0,1.4,0
				c0.1,0,0.7,0,1.1,0c0.1,0,0.2,0,0.2,0.1c0,0.1-0.1,0.1-0.1,0.1c-0.1,0-0.2,0-0.3,0c-0.4,0.1-0.5,0.3-0.5,0.8c0,0.4,0,0.8,0,2.9
				v1.4c0,1.5-0.2,3.1-1.2,4c-1,0.9-2,1-2.8,1c-0.5,0-1.8-0.1-2.8-1c-0.7-0.6-1.2-1.6-1.2-3.5V108.7z"/>
			<path d="M285.4,108.7c0-2.1,0-2.5,0-2.9c0-0.5-0.1-0.7-0.6-0.8c-0.1,0-0.3,0-0.5,0c-0.1,0-0.1,0-0.1-0.1c0-0.1,0.1-0.1,0.2-0.1
				c0.6,0,1.5,0,1.5,0c0.1,0,1.2,0,1.6,0c0.9,0,1.8,0.1,2.5,0.6c0.3,0.2,0.9,0.9,0.9,1.8c0,1-0.4,2-1.6,3.1c1.1,1.4,2,2.6,2.8,3.4
				c0.7,0.8,1.3,0.9,1.6,1c0.3,0,0.4,0,0.5,0c0.1,0,0.1,0,0.1,0.1c0,0.1-0.1,0.1-0.3,0.1h-1c-0.8,0-1.1-0.1-1.4-0.3
				c-0.6-0.3-1.1-1-1.8-2c-0.6-0.7-1.2-1.6-1.5-2c-0.1-0.1-0.1-0.1-0.2-0.1l-1.7,0c-0.1,0-0.1,0-0.1,0.1v0.3c0,1.3,0,2.4,0.1,2.9
				c0,0.4,0.1,0.7,0.5,0.7c0.2,0,0.5,0.1,0.6,0.1c0.1,0,0.1,0,0.1,0.1c0,0.1-0.1,0.1-0.2,0.1c-0.7,0-1.6,0-1.7,0c0,0-0.9,0-1.3,0
				c-0.1,0-0.2,0-0.2-0.1c0,0,0-0.1,0.1-0.1c0.1,0,0.3,0,0.4-0.1c0.3-0.1,0.3-0.3,0.4-0.7c0.1-0.6,0.1-1.6,0.1-2.9V108.7z
				 M286.5,109.9c0,0.1,0,0.1,0.1,0.2c0.2,0.1,0.8,0.2,1.4,0.2c0.3,0,0.7,0,1-0.3c0.5-0.3,0.8-1,0.8-2.1c0-1.7-0.9-2.7-2.3-2.7
				c-0.4,0-0.8,0-0.9,0.1c-0.1,0-0.1,0.1-0.1,0.2V109.9z"/>
			<path d="M308.7,111.1c0,1.3,0,2.4,0.1,2.9c0,0.4,0.1,0.7,0.5,0.7c0.2,0,0.5,0.1,0.6,0.1c0.1,0,0.1,0,0.1,0.1
				c0,0.1-0.1,0.1-0.2,0.1c-0.7,0-1.6,0-1.7,0c-0.1,0-0.9,0-1.3,0c-0.1,0-0.2,0-0.2-0.1c0,0,0-0.1,0.1-0.1c0.1,0,0.3,0,0.4-0.1
				c0.3-0.1,0.3-0.3,0.4-0.7c0.1-0.6,0.1-1.6,0.1-2.9v-5.7l-2,0c-0.8,0-1.2,0.1-1.4,0.4c-0.1,0.2-0.2,0.3-0.2,0.4
				c0,0.1-0.1,0.1-0.1,0.1c0,0-0.1,0-0.1-0.1c0-0.1,0.3-1.3,0.3-1.4c0-0.1,0.1-0.3,0.1-0.3c0.1,0,0.2,0.1,0.6,0.2
				c0.4,0,0.9,0.1,1.1,0.1h5c0.9,0,1.2-0.1,1.3-0.1c0.1,0,0.1,0.1,0.1,0.2c0,0.4,0,1.3,0,1.5c0,0.1,0,0.2-0.1,0.2
				c-0.1,0-0.1,0-0.1-0.2l0-0.1c-0.1-0.4-0.4-0.7-1.7-0.7l-1.7,0V111.1z"/>
			<path d="M318.1,108.7c0-2.1,0-2.5,0-2.9c0-0.5-0.1-0.7-0.6-0.8c-0.1,0-0.3,0-0.5,0c-0.1,0-0.1,0-0.1-0.1c0-0.1,0.1-0.1,0.2-0.1
				c0.3,0,0.7,0,1,0c0.3,0,0.5,0,0.5,0c0.1,0,2.8,0,3.1,0c0.3,0,0.5,0,0.6-0.1c0.1,0,0.1-0.1,0.2-0.1c0,0,0.1,0.1,0.1,0.1
				c0,0.1-0.1,0.3-0.1,0.6c0,0.1,0,0.7-0.1,0.9c0,0.1,0,0.1-0.1,0.1c-0.1,0-0.1-0.1-0.1-0.2c0-0.1,0-0.3-0.1-0.5
				c-0.1-0.2-0.2-0.4-1-0.5c-0.2,0-1.7,0-1.8,0c-0.1,0-0.1,0-0.1,0.1v3.7c0,0.1,0,0.1,0.1,0.1c0.2,0,1.8,0,2.1,0
				c0.3,0,0.5-0.1,0.6-0.2c0.1-0.1,0.1-0.2,0.2-0.2c0,0,0.1,0,0.1,0.1c0,0.1-0.1,0.3-0.1,0.8c0,0.3-0.1,0.8-0.1,0.9
				c0,0.1,0,0.3-0.1,0.3c-0.1,0-0.1-0.1-0.1-0.1c0-0.1,0-0.3-0.1-0.4c-0.1-0.2-0.2-0.4-0.7-0.5c-0.4,0-1.7-0.1-1.9-0.1
				c-0.1,0-0.1,0-0.1,0.1v1.2c0,0.5,0,2,0,2.3c0,0.9,0.2,1.1,1.6,1.1c0.4,0,0.9,0,1.3-0.1c0.4-0.1,0.5-0.4,0.6-1
				c0-0.1,0.1-0.2,0.1-0.2c0.1,0,0.1,0.1,0.1,0.2c0,0.1-0.1,1-0.2,1.3c-0.1,0.4-0.2,0.4-0.7,0.4c-1,0-1.7,0-2.3,0
				c-0.5,0-0.8,0-1.1,0c0,0-0.3,0-0.5,0c-0.3,0-0.6,0-0.8,0c-0.1,0-0.2,0-0.2-0.1c0,0,0-0.1,0.1-0.1c0.1,0,0.3,0,0.4-0.1
				c0.3-0.1,0.3-0.3,0.4-0.7c0.1-0.6,0.1-1.6,0.1-2.9V108.7z"/>
			<path d="M331.2,105.2c0.2-0.4,0.2-0.5,0.3-0.5c0.1,0,0.1,0.1,0.3,0.5c0.2,0.5,2.3,6.1,3.1,8.1c0.5,1.2,0.9,1.4,1.2,1.5
				c0.2,0.1,0.4,0.1,0.5,0.1c0.1,0,0.1,0,0.1,0.1c0,0.1-0.1,0.1-0.3,0.1c-0.2,0-1.2,0-2.1,0c-0.3,0-0.4,0-0.4-0.1
				c0-0.1,0-0.1,0.1-0.1c0.1,0,0.2-0.1,0.1-0.4l-1.3-3.3c0-0.1-0.1-0.1-0.1-0.1h-2.9c-0.1,0-0.1,0-0.1,0.1l-0.8,2.4
				c-0.1,0.3-0.2,0.7-0.2,0.9c0,0.3,0.3,0.4,0.5,0.4h0.1c0.1,0,0.1,0,0.1,0.1c0,0.1-0.1,0.1-0.2,0.1c-0.3,0-0.9,0-1.1,0
				c-0.1,0-0.9,0-1.5,0c-0.2,0-0.3,0-0.3-0.1c0-0.1,0.1-0.1,0.1-0.1c0.1,0,0.3,0,0.4,0c0.6-0.1,0.9-0.6,1.1-1.3L331.2,105.2z
				 M332.6,110.5C332.7,110.5,332.7,110.5,332.6,110.5l-1.2-3.7c-0.1-0.2-0.1-0.2-0.2,0l-1.2,3.6c0,0.1,0,0.1,0,0.1H332.6z"/>
			<path d="M352,113.3c0.1,0.5,0.1,1.2,0.7,1.4c0.4,0.1,0.7,0.1,0.9,0.1c0.1,0,0.1,0,0.1,0.1c0,0.1-0.1,0.1-0.3,0.1
				c-0.3,0-1.8,0-2.2-0.1c-0.3,0-0.4-0.1-0.4-0.1c0-0.1,0-0.1,0.1-0.1c0.1,0,0.1-0.2,0.1-0.5l-0.6-6.9h0l-3.3,7
				c-0.3,0.6-0.3,0.7-0.4,0.7c-0.1,0-0.2-0.1-0.4-0.6c-0.4-0.7-1.5-3-1.6-3.1c-0.1-0.2-1.6-3.5-1.8-3.8h-0.1l-0.5,6.2
				c0,0.2,0,0.5,0,0.7c0,0.2,0.1,0.4,0.3,0.4c0.2,0.1,0.4,0.1,0.5,0.1c0.1,0,0.1,0,0.1,0.1c0,0.1-0.1,0.1-0.2,0.1
				c-0.5,0-1.1,0-1.2,0c-0.1,0-0.8,0-1.1,0c-0.1,0-0.2,0-0.2-0.1c0,0,0.1-0.1,0.1-0.1c0.1,0,0.2,0,0.4,0c0.4-0.1,0.5-0.6,0.5-1.1
				l1-8.8c0-0.1,0.1-0.2,0.1-0.2c0.1,0,0.1,0.1,0.2,0.2l4.1,8.5l4-8.5c0.1-0.1,0.1-0.2,0.2-0.2c0.1,0,0.1,0.1,0.2,0.4L352,113.3z"/>
		</g>
		<g>
			<path fill="#737477" d="M97.5,72.2l-4.3,0.1c-1.7,0.1-2.4,0.2-2.8,0.8c-0.3,0.4-0.4,0.8-0.5,1c-0.1,0.2-0.1,0.4-0.3,0.4
				c-0.2,0-0.3-0.1-0.3-0.5c0-0.5,0.6-3.1,0.6-3.4c0.1-0.4,0.2-0.6,0.3-0.6c0.2,0,0.5,0.3,1.3,0.3c0.8,0.1,2,0.1,2.9,0.1H106
				c0.9,0,1.6-0.1,2-0.1c0.4-0.1,0.7-0.1,0.8-0.1c0.2,0,0.2,0.2,0.2,0.6c0,0.6-0.1,2.6-0.1,3.4c0,0.3-0.1,0.5-0.3,0.5
				c-0.2,0-0.3-0.1-0.3-0.6l0-0.3c-0.1-0.8-0.8-1.6-3.4-1.6l-3.7-0.1v11.9c0,2.7,0,5,0.1,6.2c0.1,0.8,0.3,1.5,1.1,1.6
				c0.4,0.1,1,0.1,1.5,0.1c0.3,0,0.5,0.1,0.5,0.2c0,0.2-0.2,0.3-0.6,0.3c-1.9,0-3.8-0.1-4.6-0.1c-0.7,0-2.5,0.1-3.7,0.1
				c-0.4,0-0.6-0.1-0.6-0.3c0-0.1,0.1-0.2,0.5-0.2c0.4,0,0.8-0.1,1-0.1c0.6-0.1,0.8-0.8,0.8-1.6c0.1-1.2,0.1-3.5,0.1-6.2V72.2z"/>
			<path fill="#737477" d="M110.8,81.6c0-5,3.3-11.4,12-11.4c7.3,0,11.8,4.2,11.8,10.9c0,6.7-4.7,11.9-12.1,11.9
				C114.2,93,110.8,86.7,110.8,81.6z M130.5,82.1c0-6.5-3.8-10.6-8.5-10.6c-3.4,0-7.2,1.9-7.2,9.1c0,6.1,3.4,10.9,8.9,10.9
				C125.8,91.5,130.5,90.5,130.5,82.1z"/>
			<path fill="#737477" d="M138.4,73.4c-0.3-1.1-0.7-1.8-1.1-2.1c-0.3-0.2-0.9-0.3-1.2-0.3c-0.3,0-0.5,0-0.5-0.3
				c0-0.2,0.2-0.3,0.6-0.3c1.5,0,3.1,0.1,3.4,0.1c0.3,0,1.5-0.1,3.2-0.1c0.4,0,0.6,0.1,0.6,0.3c0,0.2-0.2,0.3-0.5,0.3
				c-0.2,0-0.5,0-0.7,0.1c-0.3,0.1-0.3,0.3-0.3,0.6c0,0.4,0.3,1.4,0.6,2.7c0.5,1.9,3.2,10.8,3.7,12.4h0.1l5.7-15.2
				c0.3-0.8,0.5-1,0.7-1c0.3,0,0.5,0.4,0.8,1.4l6.1,14.7h0.1c0.5-2,2.9-9.6,3.9-13.1c0.2-0.7,0.3-1.3,0.3-1.7c0-0.5-0.3-0.9-1.4-0.9
				c-0.3,0-0.5-0.1-0.5-0.3c0-0.2,0.2-0.3,0.7-0.3c1.5,0,2.8,0.1,3,0.1c0.2,0,1.5-0.1,2.4-0.1c0.3,0,0.5,0.1,0.5,0.2
				c0,0.2-0.1,0.3-0.4,0.3c-0.3,0-0.7,0-1,0.1c-0.7,0.3-1,1.4-1.6,3.1c-1.3,3.7-4.4,12.9-5.8,17.3c-0.3,1-0.5,1.4-0.8,1.4
				c-0.3,0-0.5-0.4-0.9-1.4L152,76.9H152c-0.6,1.5-4.4,11.8-5.7,14.5c-0.6,1.2-0.7,1.5-1,1.5c-0.3,0-0.4-0.3-0.7-1.1L138.4,73.4z"/>
			<path fill="#737477" d="M174.2,88.6c0.1,2.3,0.4,3,1,3.2c0.5,0.2,1,0.2,1.5,0.2c0.3,0,0.5,0.1,0.5,0.2c0,0.2-0.3,0.3-0.7,0.3
				c-1.9,0-3.1-0.1-3.6-0.1c-0.3,0-1.6,0.1-3.1,0.1c-0.4,0-0.6,0-0.6-0.3c0-0.2,0.2-0.2,0.5-0.2c0.4,0,0.9,0,1.3-0.1
				c0.8-0.2,0.9-1.1,0.9-3.6l0.3-17.3c0-0.6,0.1-1,0.4-1c0.3,0,0.6,0.4,1.1,0.9c0.3,0.4,4.8,5.1,9,9.4c2,2,5.9,6.2,6.4,6.6h0.1
				l-0.3-13.1c0-1.8-0.3-2.3-1-2.6c-0.4-0.2-1.1-0.2-1.5-0.2c-0.3,0-0.5-0.1-0.5-0.3c0-0.2,0.3-0.3,0.8-0.3c1.5,0,2.9,0.1,3.5,0.1
				c0.3,0,1.4-0.1,2.9-0.1c0.4,0,0.7,0,0.7,0.3c0,0.2-0.2,0.3-0.5,0.3c-0.3,0-0.5,0-0.9,0.1c-0.8,0.2-1,0.8-1.1,2.5L190.9,92
				c0,0.6-0.1,0.9-0.4,0.9c-0.3,0-0.7-0.3-1-0.6c-1.8-1.7-5.6-5.6-8.6-8.6c-3.2-3.1-6.4-6.8-6.9-7.3h-0.1L174.2,88.6z"/>
			<path fill="#737477" d="M200.2,79c0-4.4,0-5.2-0.1-6.2c-0.1-1-0.3-1.5-1.3-1.7c-0.2-0.1-0.7-0.1-1.1-0.1c-0.3,0-0.5-0.1-0.5-0.3
				c0-0.2,0.2-0.3,0.6-0.3c0.8,0,1.6,0,2.4,0c0.8,0,1.4,0.1,1.8,0.1c0.9,0,6.7,0,7.3,0c0.6-0.1,1-0.1,1.3-0.2c0.1,0,0.3-0.1,0.5-0.1
				c0.1,0,0.2,0.1,0.2,0.3c0,0.2-0.1,0.6-0.2,1.9c0,0.3-0.1,1.6-0.1,1.9c0,0.1-0.1,0.3-0.3,0.3c-0.2,0-0.3-0.1-0.3-0.4
				c0-0.2,0-0.7-0.2-1c-0.2-0.5-0.5-0.9-2-1c-0.5-0.1-3.6-0.1-4.1-0.1c-0.1,0-0.2,0.1-0.2,0.3v7.4c0,0.2,0,0.3,0.2,0.3
				c0.6,0,4,0,4.7-0.1c0.7-0.1,1.1-0.1,1.4-0.4c0.2-0.2,0.3-0.4,0.5-0.4c0.1,0,0.2,0.1,0.2,0.2c0,0.2-0.1,0.6-0.2,2.1
				c-0.1,0.6-0.1,1.7-0.1,2c0,0.2,0,0.6-0.3,0.6c-0.2,0-0.3-0.1-0.3-0.3c0-0.3,0-0.7-0.1-1c-0.1-0.6-0.6-1-1.6-1.1
				c-0.6-0.1-3.4-0.1-4.1-0.1c-0.1,0-0.2,0.1-0.2,0.3v2.3c0,1,0,3.7,0,4.5c0.1,2,0.5,2.4,3.5,2.4c0.8,0,2,0,2.7-0.4
				c0.8-0.3,1.1-1,1.3-2.2c0.1-0.3,0.1-0.4,0.3-0.4c0.2,0,0.2,0.2,0.2,0.5c0,0.7-0.2,2.7-0.4,3.2c-0.2,0.8-0.5,0.8-1.6,0.8
				c-2.2,0-3.8-0.1-5-0.1c-1.3-0.1-2.2-0.1-3-0.1c-0.3,0-1,0-1.7,0c-0.7,0-1.4,0.1-2,0.1c-0.4,0-0.6-0.1-0.6-0.3
				c0-0.1,0.1-0.2,0.5-0.2c0.4,0,0.8-0.1,1-0.1c0.6-0.1,0.7-0.8,0.8-1.6c0.1-1.2,0.1-3.5,0.1-6.2V79z"/>
			<path fill="#737477" d="M231,84.1c0,3.7,0,5.7,0.6,6.3c0.5,0.4,1.3,0.6,3.5,0.6c1.5,0,2.7,0,3.4-0.8c0.3-0.4,0.7-1.2,0.8-1.8
				c0-0.3,0.1-0.4,0.3-0.4c0.2,0,0.2,0.1,0.2,0.5c0,0.3-0.2,2.5-0.4,3.4c-0.2,0.6-0.3,0.8-1.8,0.8c-2.1,0-3.6-0.1-4.9-0.1
				c-1.3-0.1-2.4-0.1-3.6-0.1c-0.3,0-1,0-1.7,0c-0.7,0-1.4,0.1-2,0.1c-0.4,0-0.6-0.1-0.6-0.3c0-0.1,0.1-0.2,0.5-0.2
				c0.4,0,0.8-0.1,1-0.1c0.6-0.1,0.7-0.8,0.8-1.6c0.1-1.2,0.1-3.5,0.1-6.2V79c0-4.4,0-5.2-0.1-6.2c-0.1-1-0.3-1.5-1.3-1.7
				c-0.2-0.1-0.6-0.1-1-0.1c-0.3,0-0.5-0.1-0.5-0.3c0-0.2,0.2-0.3,0.6-0.3c1.4,0,3.2,0.1,4,0.1c0.7,0,2.8-0.1,4-0.1
				c0.4,0,0.6,0.1,0.6,0.3c0,0.2-0.2,0.3-0.5,0.3c-0.3,0-0.8,0-1.1,0.1c-0.8,0.1-1,0.6-1.1,1.7c-0.1,0.9-0.1,1.7-0.1,6.2V84.1z"/>
			<path fill="#737477" d="M246.7,85c-0.1,0-0.2,0.1-0.3,0.2l-1.6,4.2c-0.3,0.7-0.4,1.4-0.4,1.8c0,0.5,0.3,0.9,1.2,0.9h0.4
				c0.3,0,0.4,0.1,0.4,0.2c0,0.2-0.2,0.3-0.5,0.3c-0.9,0-2.2-0.1-3.1-0.1c-0.3,0-1.9,0.1-3.4,0.1c-0.4,0-0.6-0.1-0.6-0.3
				c0-0.2,0.1-0.2,0.3-0.2c0.3,0,0.7,0,0.9-0.1c1.3-0.2,1.9-1.2,2.5-2.6l7.3-18.3c0.3-0.8,0.5-1.2,0.8-1.2c0.3,0,0.4,0.3,0.7,0.9
				c0.7,1.6,5.4,13.5,7.2,17.9c1.1,2.6,2,3,2.6,3.2c0.4,0.1,0.9,0.1,1.2,0.1c0.2,0,0.4,0,0.4,0.2c0,0.2-0.3,0.3-1.3,0.3
				c-1,0-3.2,0-5.5-0.1c-0.5,0-0.9,0-0.9-0.2c0-0.2,0.1-0.2,0.4-0.3c0.2-0.1,0.4-0.3,0.3-0.7l-2.3-6.2c-0.1-0.1-0.1-0.2-0.3-0.2
				H246.7z M252.7,83.5c0.1,0,0.2-0.1,0.1-0.2l-2.6-7.2c0-0.1-0.1-0.3-0.1-0.3c-0.1,0-0.1,0.1-0.2,0.3l-2.7,7.2c0,0.1,0,0.2,0.1,0.2
				H252.7z"/>
			<path fill="#737477" d="M262.1,73.4c-0.3-1.1-0.7-1.8-1.1-2.1c-0.3-0.2-0.9-0.3-1.2-0.3c-0.3,0-0.5,0-0.5-0.3
				c0-0.2,0.2-0.3,0.6-0.3c1.5,0,3.1,0.1,3.4,0.1c0.3,0,1.5-0.1,3.2-0.1c0.4,0,0.6,0.1,0.6,0.3c0,0.2-0.2,0.3-0.5,0.3
				c-0.2,0-0.5,0-0.7,0.1c-0.3,0.1-0.3,0.3-0.3,0.6c0,0.4,0.3,1.4,0.6,2.7c0.5,1.9,3.2,10.8,3.7,12.4h0.1l5.7-15.2
				c0.3-0.8,0.5-1,0.7-1c0.3,0,0.5,0.4,0.8,1.4l6.1,14.7h0.1c0.5-2,2.9-9.6,3.9-13.1c0.2-0.7,0.3-1.3,0.3-1.7c0-0.5-0.3-0.9-1.4-0.9
				c-0.3,0-0.5-0.1-0.5-0.3c0-0.2,0.2-0.3,0.7-0.3c1.5,0,2.8,0.1,3,0.1c0.2,0,1.5-0.1,2.4-0.1c0.3,0,0.5,0.1,0.5,0.2
				c0,0.2-0.1,0.3-0.4,0.3c-0.3,0-0.7,0-1,0.1c-0.7,0.3-1,1.4-1.6,3.1c-1.3,3.7-4.4,12.9-5.8,17.3c-0.3,1-0.5,1.4-0.8,1.4
				c-0.3,0-0.5-0.4-0.9-1.4l-6.1-14.6h-0.1c-0.6,1.5-4.4,11.8-5.7,14.5c-0.6,1.2-0.7,1.5-1,1.5c-0.3,0-0.4-0.3-0.7-1.1L262.1,73.4z"
				/>
			<path fill="#737477" d="M293.4,88.4c0.3,0,0.3,0.1,0.7,0.7c0.5,0.7,0.6,1.2,0.6,1.5c0,0.3-0.2,0.9-0.4,1.4
				c-0.4,0.9-1.3,2.7-2.3,3.9c-0.2,0.2-0.3,0.4-0.5,0.4c-0.1,0-0.2-0.1-0.2-0.3c0-0.1,0.2-0.4,0.2-0.5c0.6-1,0.8-1.9,0.8-2.5
				c0-1.7-1.2-2.1-1.2-2.5C291.2,89.4,292.5,88.4,293.4,88.4z"/>
			<path fill="#737477" d="M310.1,79c0-4.4,0-5.2-0.1-6.2c-0.1-1-0.3-1.5-1.3-1.7c-0.2-0.1-0.7-0.1-1.1-0.1c-0.3,0-0.5-0.1-0.5-0.3
				c0-0.2,0.2-0.3,0.6-0.3c1.5,0,3.4,0.1,4.2,0.1c1.2,0,2.9-0.1,4.2-0.1c3.6,0,5,1.2,5.4,1.7c0.6,0.6,1.5,1.9,1.5,3.5
				c0,4.1-3,7.1-7.2,7.1c-0.1,0-0.5,0-0.6,0c-0.1,0-0.3-0.1-0.3-0.3c0-0.2,0.2-0.3,0.8-0.3c1.6,0,3.9-1.8,3.9-4.8
				c0-1-0.1-2.9-1.7-4.4c-1-1-2.2-1.1-2.9-1.1c-0.4,0-0.9,0-1.1,0.1c-0.1,0.1-0.2,0.2-0.2,0.6v11.7c0,2.7,0,5,0.1,6.2
				c0.1,0.8,0.3,1.5,1.1,1.6c0.4,0.1,1,0.1,1.5,0.1c0.3,0,0.5,0.1,0.5,0.2c0,0.2-0.2,0.3-0.6,0.3c-1.9,0-3.8-0.1-4.5-0.1
				c-0.7,0-2.5,0.1-3.7,0.1c-0.4,0-0.6-0.1-0.6-0.3c0-0.1,0.1-0.2,0.5-0.2c0.4,0,0.8-0.1,1-0.1c0.6-0.1,0.7-0.8,0.8-1.6
				c0.1-1.2,0.1-3.5,0.1-6.2V79z"/>
			<path fill="#737477" d="M322.5,90.7c0-0.7,0.5-1.8,1.8-1.8c1,0,1.8,0.7,1.8,1.7s-0.7,1.9-1.8,1.9C323,92.5,322.5,91.5,322.5,90.7
				z"/>
			<path fill="#737477" d="M333.9,85c-0.1,0-0.2,0.1-0.3,0.2l-1.6,4.2c-0.3,0.7-0.4,1.4-0.4,1.8c0,0.5,0.3,0.9,1.2,0.9h0.4
				c0.3,0,0.4,0.1,0.4,0.2c0,0.2-0.2,0.3-0.5,0.3c-0.9,0-2.2-0.1-3.1-0.1c-0.3,0-1.9,0.1-3.4,0.1c-0.4,0-0.6-0.1-0.6-0.3
				c0-0.2,0.1-0.2,0.4-0.2c0.3,0,0.7,0,0.9-0.1c1.3-0.2,1.9-1.2,2.5-2.6l7.3-18.3c0.3-0.8,0.5-1.2,0.8-1.2c0.3,0,0.4,0.3,0.7,0.9
				c0.7,1.6,5.4,13.5,7.2,17.9c1.1,2.6,2,3,2.6,3.2c0.4,0.1,0.9,0.1,1.2,0.1c0.2,0,0.4,0,0.4,0.2c0,0.2-0.3,0.3-1.3,0.3
				c-1,0-3.2,0-5.5-0.1c-0.5,0-0.9,0-0.9-0.2c0-0.2,0.1-0.2,0.4-0.3c0.2-0.1,0.4-0.3,0.3-0.7l-2.3-6.2c-0.1-0.1-0.1-0.2-0.3-0.2
				H333.9z M339.8,83.5c0.1,0,0.2-0.1,0.1-0.2l-2.6-7.2c0-0.1-0.1-0.3-0.1-0.3c-0.1,0-0.1,0.1-0.2,0.3l-2.7,7.2c0,0.1,0,0.2,0.1,0.2
				H339.8z"/>
			<path fill="#737477" d="M350.2,90.7c0-0.7,0.5-1.8,1.8-1.8c1,0,1.8,0.7,1.8,1.7s-0.7,1.9-1.8,1.9
				C350.7,92.5,350.2,91.5,350.2,90.7z"/>
		</g>
		<g>
			<g>
				<path fill="#00AAB8" d="M171.7,47.9c0-2-0.4-2.8-0.9-3.9c-0.3-0.6-5.2-8.8-6.5-10.7c-0.9-1.4-1.9-2.3-2.6-2.7
					c-0.5-0.3-1.1-0.5-1.6-0.5c-0.3,0-0.6-0.1-0.6-0.3c0-0.2,0.3-0.3,0.7-0.3c0.7,0,3.5,0.1,4.7,0.1c0.8,0,2.3-0.1,4-0.1
					c0.4,0,0.6,0.1,0.6,0.3c0,0.2-0.3,0.3-0.8,0.4c-0.3,0.1-0.5,0.4-0.5,0.7c0,0.3,0.2,0.7,0.4,1.3c0.5,1.1,5.7,10.1,6.3,11.1
					c0.4-0.9,5.1-9.1,5.6-10.2c0.4-0.8,0.5-1.4,0.5-1.9c0-0.4-0.1-0.8-0.8-0.9c-0.3-0.1-0.7-0.1-0.7-0.4c0-0.3,0.2-0.3,0.6-0.3
					c1.2,0,2.4,0.1,3.5,0.1c0.8,0,3.3-0.1,4-0.1c0.4,0,0.7,0.1,0.7,0.3c0,0.3-0.3,0.4-0.7,0.4c-0.4,0-1.1,0.1-1.6,0.4
					c-0.8,0.4-1.2,0.8-2,1.8c-1.2,1.5-6.4,10.2-7.1,11.8c-0.6,1.3-0.6,2.5-0.6,3.7v3c0,0.6,0,2.2,0.1,3.7c0.1,1.1,0.4,1.9,1.5,2
					c0.5,0.1,1.3,0.1,1.9,0.1c0.4,0,0.6,0.1,0.6,0.3c0,0.3-0.3,0.4-0.8,0.4c-2.3,0-4.7-0.1-5.7-0.1c-0.9,0-3.3,0.1-4.6,0.1
					c-0.5,0-0.8-0.1-0.8-0.4c0-0.2,0.2-0.3,0.6-0.3c0.5,0,1-0.1,1.3-0.1c0.7-0.1,1.1-1,1.2-2c0.1-1.6,0.1-3.1,0.1-3.7V47.9z"/>
				<path fill="#00AAB8" d="M187.7,43.5c0-6.4,4.2-14.6,15.4-14.6c9.3,0,15,5.4,15,13.9c0,8.5-5.9,15.2-15.4,15.2
					C192,58,187.7,50.1,187.7,43.5z M212.8,44.2c0-8.3-4.8-13.5-10.9-13.5c-4.3,0-9.1,2.4-9.1,11.6c0,7.7,4.3,13.9,11.4,13.9
					C206.8,56.2,212.8,54.9,212.8,44.2z"/>
				<path fill="#00AAB8" d="M224.6,40.2c0-5.7,0-6.7-0.1-7.9c-0.1-1.3-0.4-1.9-1.6-2.1c-0.3-0.1-0.9-0.1-1.4-0.1
					c-0.4,0-0.6-0.1-0.6-0.3c0-0.3,0.3-0.3,0.8-0.3c2,0,4.3,0.1,5.4,0.1c0.9,0,3.2-0.1,4.6-0.1c0.6,0,0.8,0.1,0.8,0.3
					c0,0.3-0.2,0.3-0.6,0.3c-0.4,0-0.6,0-1.1,0.1c-1,0.2-1.3,0.8-1.4,2.1c-0.1,1.2-0.1,2.2-0.1,7.9v5.2c0,5.4,1.1,7.7,2.9,9.1
					c1.7,1.4,3.4,1.5,4.6,1.5c1.6,0,3.6-0.5,5.1-2c2-2,2.2-5.4,2.2-9.2v-4.6c0-5.7,0-6.7-0.1-7.9c-0.1-1.3-0.4-1.9-1.6-2.1
					c-0.3-0.1-0.9-0.1-1.3-0.1c-0.4,0-0.6-0.1-0.6-0.3c0-0.3,0.3-0.3,0.8-0.3c1.9,0,4.2,0.1,4.3,0.1c0.4,0,2.8-0.1,4.2-0.1
					c0.5,0,0.8,0.1,0.8,0.3c0,0.3-0.2,0.3-0.7,0.3c-0.4,0-0.6,0-1.1,0.1c-1,0.2-1.3,0.8-1.4,2.1c-0.1,1.2-0.1,2.2-0.1,7.9v4
					c0,4.1-0.4,8.5-3.5,11.2c-2.6,2.3-5.3,2.7-7.7,2.7c-2,0-5.5-0.1-8.3-2.6c-1.9-1.7-3.3-4.5-3.3-9.9V40.2z"/>
				<path fill="#00AAB8" d="M257.8,40.2c0-5.7,0-6.7-0.1-7.9c-0.1-1.3-0.4-1.9-1.6-2.1c-0.3-0.1-0.9-0.1-1.4-0.1
					c-0.4,0-0.6-0.1-0.6-0.3c0-0.3,0.3-0.3,0.8-0.3c2,0,4.3,0.1,5.1,0.1c1.3,0,4.1-0.1,5.2-0.1c2.3,0,4.8,0.2,6.8,1.6
					c1,0.7,2.5,2.6,2.5,5.1c0,2.8-1.2,5.3-4.9,8.3c3.3,4.2,5.9,7.5,8.1,9.8c2.1,2.2,3.6,2.4,4.2,2.5c0.4,0.1,0.7,0.1,1,0.1
					c0.3,0,0.4,0.1,0.4,0.3c0,0.3-0.3,0.4-0.7,0.4h-3.5c-2.1,0-3-0.2-4-0.7c-1.6-0.9-3-2.6-5.1-5.5c-1.5-2-3.2-4.6-3.7-5.1
					c-0.2-0.2-0.4-0.3-0.7-0.3l-3.2-0.1c-0.2,0-0.3,0.1-0.3,0.3v0.5c0,3.5,0,6.4,0.2,8c0.1,1.1,0.3,1.9,1.4,2
					c0.6,0.1,1.4,0.1,1.8,0.1c0.3,0,0.4,0.1,0.4,0.3c0,0.3-0.3,0.4-0.7,0.4c-2.2,0-4.9-0.1-5.5-0.1c-0.7,0-3,0.1-4.5,0.1
					c-0.5,0-0.7-0.1-0.7-0.4c0-0.2,0.1-0.3,0.6-0.3c0.6,0,1-0.1,1.3-0.1c0.7-0.1,0.9-1,1.1-2c0.2-1.6,0.2-4.5,0.2-7.9V40.2z
					 M262.2,43.1c0,0.4,0.1,0.6,0.3,0.7c0.8,0.3,1.9,0.4,2.8,0.4c1.5,0,2-0.1,2.6-0.6c1.1-0.8,2.2-2.5,2.2-5.6
					c0-5.3-3.5-6.8-5.7-6.8c-0.9,0-1.6,0-2,0.1c-0.3,0.1-0.3,0.2-0.3,0.5V43.1z"/>
			</g>
			<path fill="#00AAB8" d="M96.9,47.7c126-68.8,249.2-2.3,249.2-2.3C207.4-44.7,96.9,47.7,96.9,47.7z M326.4,40.6l-5,8.7l-5,8.7
				h20.1l-5-8.7L326.4,40.6z M116.6,40.6l-5,8.7l-5,8.7h20.1l-5-8.7L116.6,40.6z"/>
		</g>
	</g>
</g>
</svg>
